<svg xmlns="http://www.w3.org/2000/svg" viewBox="0 0 1024 1024" color="#336fd1" role="img"><title>notable_npc</title><path fill="currentColor" transform="translate(0 960) scale(1 -1)" d="M512 448c-58.667 0-108.89 20.89-150.667 62.667s-62.667 92-62.667 150.667c0 58.667 20.89 108.891 62.667 150.669s92 62.667 150.667 62.667c58.667 0 108.89-20.889 150.667-62.667s62.667-92.002 62.667-150.669c0-58.667-20.89-108.89-62.667-150.667s-92-62.667-150.667-62.667zM192 21.333c-29.333 0-54.436 10.436-75.307 31.307-20.907 20.907-31.36 46.027-31.36 75.36v42.667c0 30.223 7.787 58.010 23.36 83.36 15.538 25.316 36.196 44.64 61.973 57.973 55.109 27.556 111.109 48.23 168.001 62.027 56.89 13.76 114.667 20.64 173.331 20.64 58.667 0 116.444-6.88 173.333-20.64 56.89-13.796 112.89-34.47 168-62.027 25.777-13.333 46.436-32.657 61.973-57.973 15.573-25.35 23.36-53.137 23.36-83.36v-42.667c0-29.333-10.436-54.453-31.307-75.36-20.909-20.87-46.029-31.307-75.36-31.307h-639.998z"/></svg>
